0
SECTION
2
HEADER
9
$INSUNITS
70
4
9
$ACADVER
1
AC1014
9
$HANDSEED
5
FFFF
0
ENDSEC
0
SECTION
2
TABLES
0
TABLE
2
VPORT
5
8
100
AcDbSymbolTable
0
ENDTAB
0
TABLE
2
LTYPE
5
5
100
AcDbSymbolTable
0
LTYPE
5
14
100
AcDbSymbolTableRecord
100
AcDbLinetypeTableRecord
2
BYBLOCK
70
0
0
LTYPE
5
15
100
AcDbSymbolTableRecord
100
AcDbLinetypeTableRecord
2
BYLAYER
70
0
0
ENDTAB
0
TABLE
2
LAYER
5
2
100
AcDbSymbolTable
70
2
0
LAYER
5
50
100
AcDbSymbolTableRecord
100
AcDbLayerTableRecord
2
0
70
0
6
CONTINUOUS
0
ENDTAB
0
TABLE
2
STYLE
5
3
100
AcDbSymbolTable
70
1
0
STYLE
5
11
100
AcDbSymbolTableRecord
100
AcDbTextStyleTableRecord
2
STANDARD
70
0
0
ENDTAB
0
TABLE
2
VIEW
5
6
100
AcDbSymbolTable
70
0
0
ENDTAB
0
TABLE
2
UCS
5
7
100
AcDbSymbolTable
70
0
0
ENDTAB
0
TABLE
2
APPID
5
9
100
AcDbSymbolTable
70
2
0
APPID
5
12
100
AcDbSymbolTableRecord
100
AcDbRegAppTableRecord
2
ACAD
70
0
0
ENDTAB
0
TABLE
2
DIMSTYLE
5
A
100
AcDbSymbolTable
70
1
0
ENDTAB
0
TABLE
2
BLOCK_RECORD
5
1
100
AcDbSymbolTable
70
1
0
BLOCK_RECORD
5
1F
100
AcDbSymbolTableRecord
100
AcDbBlockTableRecord
2
*MODEL_SPACE
0
BLOCK_RECORD
5
1B
100
AcDbSymbolTableRecord
100
AcDbBlockTableRecord
2
*PAPER_SPACE
0
ENDTAB
0
ENDSEC
0
SECTION
2
BLOCKS
0
BLOCK
5
20
100
AcDbEntity
100
AcDbBlockBegin
2
*MODEL_SPACE
0
ENDBLK
5
21
100
AcDbEntity
100
AcDbBlockEnd
0
BLOCK
5
1C
100
AcDbEntity
100
AcDbBlockBegin
2
*PAPER_SPACE
0
ENDBLK
5
1D
100
AcDbEntity
100
AcDbBlockEnd
0
ENDSEC
0
SECTION
2
ENTITIES
0
LWPOLYLINE
5
100
100
AcDbEntity
8
0
100
AcDbPolyline
90
16
70
1
43
0.0
10
350
20
-302
10
330
20
-302
10
301.99999999999994
20
-330
10
302
20
-350
10
48.000000000000007
20
-350
10
48.000000000000043
20
-330
10
20
20
-302
10
0
20
-302
10
0
20
-48.000000000000007
10
20
20
-48.000000000000007
10
48.000000000000043
20
-20
10
48.000000000000007
20
0
10
302
20
0
10
301.99999999999994
20
-20
10
330
20
-48.000000000000007
10
350
20
-48.000000000000007
0
CIRCLE
5
101
100
AcDbEntity
8
0
100
AcDbCircle
10
9.9999999999999769
20
-238.5
30
0
40
2.75
210
-0
220
0
230
1
0
CIRCLE
5
102
100
AcDbEntity
8
0
100
AcDbCircle
10
29.000000000000039
20
-111.99999999999997
30
0
40
2.0000000000000022
210
-0
220
0
230
1
0
CIRCLE
5
103
100
AcDbEntity
8
0
100
AcDbCircle
10
238.50000000000009
20
-339.99999999999989
30
0
40
2.75
210
0
220
-0
230
1
0
LWPOLYLINE
5
104
100
AcDbEntity
8
0
100
AcDbPolyline
90
16
70
1
43
0.0
10
330
20
-48.000000000000007
10
301.99999999999994
20
-20
10
302
20
0
10
48.000000000000007
20
0
10
48.000000000000043
20
-20
10
20
20
-48.000000000000007
10
0
20
-48.000000000000007
10
0
20
-302
10
20
20
-302
10
48.000000000000043
20
-330
10
48.000000000000007
20
-350
10
302
20
-350
10
301.99999999999994
20
-330
10
330
20
-302
10
350
20
-302
10
350
20
-48.000000000000007
0
CIRCLE
5
105
100
AcDbEntity
8
0
100
AcDbCircle
10
9.9999999999999414
20
-111.5
30
0
40
2.75
210
-0
220
0
230
1
0
CIRCLE
5
106
100
AcDbEntity
8
0
100
AcDbCircle
10
131.00000000000006
20
-42.499999999999964
30
0
40
2.0000000000000111
210
-0
220
0
230
1
0
CIRCLE
5
107
100
AcDbEntity
8
0
100
AcDbCircle
10
111.50000000000009
20
-340
30
0
40
2.75
210
0
220
-0
230
1
0
CIRCLE
5
108
100
AcDbEntity
8
0
100
AcDbCircle
10
26.999999999999993
20
-52
30
0
40
1.9999999999999982
210
0
220
-0
230
1
0
CIRCLE
5
109
100
AcDbEntity
8
0
100
AcDbCircle
10
294.99999999999989
20
-302
30
0
40
1.7499999999999858
210
0
220
0
230
1
0
CIRCLE
5
110
100
AcDbEntity
8
0
100
AcDbCircle
10
111.5
20
-10.000000000000004
30
0
40
2.75
210
0
220
-0
230
1
0
CIRCLE
5
111
100
AcDbEntity
8
0
100
AcDbCircle
10
238.49999999999997
20
-9.9999999999999964
30
0
40
2.75
210
0
220
-0
230
1
0
CIRCLE
5
112
100
AcDbEntity
8
0
100
AcDbCircle
10
340
20
-238.49999999999997
30
0
40
2.75
210
-0
220
0
230
1
0
CIRCLE
5
113
100
AcDbEntity
8
0
100
AcDbCircle
10
27.000000000000021
20
-177.99999999999997
30
0
40
2.0000000000000107
210
0
220
-0
230
1
0
CIRCLE
5
114
100
AcDbEntity
8
0
100
AcDbCircle
10
95.249999999999986
20
-265
30
0
40
2
210
0
220
-0
230
1
0
CIRCLE
5
115
100
AcDbEntity
8
0
100
AcDbCircle
10
214.99999999999997
20
-302
30
0
40
1.7499999999999858
210
0
220
0
230
1
0
CIRCLE
5
116
100
AcDbEntity
8
0
100
AcDbCircle
10
340
20
-111.49999999999977
30
0
40
2.75
210
0
220
-0
230
1
0
CIRCLE
5
117
100
AcDbEntity
8
0
100
AcDbCircle
10
238.50000000000009
20
-339.99999999999989
30
0
40
2.75
210
-0
220
0
230
1
0
CIRCLE
5
118
100
AcDbEntity
8
0
100
AcDbCircle
10
294.99999999999989
20
-182.00000000000017
30
0
40
1.7499999999999858
210
0
220
0
230
1
0
CIRCLE
5
119
100
AcDbEntity
8
0
100
AcDbCircle
10
111.5
20
-10.000000000000004
30
0
40
2.75
210
-0
220
0
230
1
0
CIRCLE
5
120
100
AcDbEntity
8
0
100
AcDbCircle
10
214.99999999999997
20
-182.00000000000017
30
0
40
1.7499999999999858
210
0
220
0
230
1
0
CIRCLE
5
121
100
AcDbEntity
8
0
100
AcDbCircle
10
131.00000000000006
20
-181.5
30
0
40
1.9999999999999991
210
-0
220
0
230
1
0
CIRCLE
5
122
100
AcDbEntity
8
0
100
AcDbCircle
10
9.9999999999999414
20
-111.5
30
0
40
2.75
210
0
220
-0
230
1
0
CIRCLE
5
123
100
AcDbEntity
8
0
100
AcDbCircle
10
9.9999999999999769
20
-238.5
30
0
40
2.75
210
0
220
-0
230
1
0
CIRCLE
5
124
100
AcDbEntity
8
0
100
AcDbCircle
10
340
20
-238.49999999999997
30
0
40
2.75
210
0
220
-0
230
1
0
CIRCLE
5
125
100
AcDbEntity
8
0
100
AcDbCircle
10
113
20
-114.99999999999999
30
0
40
2.0000000000000018
210
0
220
-0
230
1
0
CIRCLE
5
126
100
AcDbEntity
8
0
100
AcDbCircle
10
238.49999999999997
20
-9.9999999999999964
30
0
40
2.75
210
-0
220
0
230
1
0
CIRCLE
5
127
100
AcDbEntity
8
0
100
AcDbCircle
10
30.749999999999975
20
-264.99999999999994
30
0
40
2
210
0
220
-0
230
1
0
CIRCLE
5
128
100
AcDbEntity
8
0
100
AcDbCircle
10
111.50000000000009
20
-340
30
0
40
2.75
210
-0
220
0
230
1
0
CIRCLE
5
129
100
AcDbEntity
8
0
100
AcDbCircle
10
340
20
-111.49999999999977
30
0
40
2.75
210
-0
220
0
230
1
0
ENDSEC
0
SECTION
2
OBJECTS
0
DICTIONARY
5
C
100
AcDbDictionary
3
ACAD_GROUP
350
D
3
ACAD_MLINESTYLE
350
17
0
DICTIONARY
5
D
100
AcDbDictionary
0
DICTIONARY
5
1A
330
C
100
AcDbDictionary
0
DICTIONARY
5
17
100
AcDbDictionary
0
ENDSEC
0
EOF
