solid ASCII
  facet normal 3.140185e-017 -7.071068e-001 -7.071068e-001
    outer loop
      vertex   2.500000e+001 0.000000e+000 1.000000e+000
      vertex   0.000000e+000 0.000000e+000 1.000000e+000
      vertex   2.500000e+001 1.000000e+000 0.000000e+000
    endloop
  endfacet
  facet normal -0.000000e+000 -7.071068e-001 -7.071068e-001
    outer loop
      vertex   2.500000e+001 1.000000e+000 0.000000e+000
      vertex   0.000000e+000 0.000000e+000 1.000000e+000
      vertex   0.000000e+000 1.000000e+000 0.000000e+000
    endloop
  endfacet
  facet normal 0.000000e+000 -1.000000e+000 0.000000e+000
    outer loop
      vertex   0.000000e+000 0.000000e+000 5.000000e+000
      vertex   0.000000e+000 0.000000e+000 1.000000e+000
      vertex   5.000000e+000 0.000000e+000 5.000000e+000
    endloop
  endfacet
  facet normal 0.000000e+000 -1.000000e+000 -0.000000e+000
    outer loop
      vertex   5.000000e+000 0.000000e+000 5.000000e+000
      vertex   0.000000e+000 0.000000e+000 1.000000e+000
      vertex   2.500000e+001 0.000000e+000 1.000000e+000
    endloop
  endfacet
  facet normal 0.000000e+000 -1.000000e+000 0.000000e+000
    outer loop
      vertex   5.000000e+000 0.000000e+000 5.000000e+000
      vertex   2.500000e+001 0.000000e+000 1.000000e+000
      vertex   1.000000e+001 0.000000e+000 1.003945e+001
    endloop
  endfacet
  facet normal 0.000000e+000 -1.000000e+000 0.000000e+000
    outer loop
      vertex   1.000000e+001 0.000000e+000 1.003945e+001
      vertex   2.500000e+001 0.000000e+000 1.000000e+000
      vertex   1.500000e+001 0.000000e+000 1.500000e+001
    endloop
  endfacet
  facet normal 0.000000e+000 -1.000000e+000 0.000000e+000
    outer loop
      vertex   1.000000e+001 0.000000e+000 1.003945e+001
      vertex   1.500000e+001 0.000000e+000 1.500000e+001
      vertex   1.000000e+001 0.000000e+000 1.500000e+001
    endloop
  endfacet
  facet normal 0.000000e+000 -1.000000e+000 0.000000e+000
    outer loop
      vertex   1.500000e+001 0.000000e+000 1.500000e+001
      vertex   2.500000e+001 0.000000e+000 1.000000e+000
      vertex   2.000000e+001 0.000000e+000 2.000000e+001
    endloop
  endfacet
  facet normal 0.000000e+000 -1.000000e+000 0.000000e+000
    outer loop
      vertex   2.000000e+001 0.000000e+000 2.000000e+001
      vertex   2.500000e+001 0.000000e+000 1.000000e+000
      vertex   2.500000e+001 0.000000e+000 2.500000e+001
    endloop
  endfacet
  facet normal 0.000000e+000 -1.000000e+000 0.000000e+000
    outer loop
      vertex   2.000000e+001 0.000000e+000 2.000000e+001
      vertex   2.500000e+001 0.000000e+000 2.500000e+001
      vertex   2.000000e+001 0.000000e+000 2.500000e+001
    endloop
  endfacet
  facet normal -0.000000e+000 -1.000000e+000 0.000000e+000
    outer loop
      vertex   2.000000e+001 0.000000e+000 2.000000e+001
      vertex   1.500000e+001 0.000000e+000 2.000000e+001
      vertex   1.500000e+001 0.000000e+000 1.500000e+001
    endloop
  endfacet
  facet normal -0.000000e+000 -1.000000e+000 0.000000e+000
    outer loop
      vertex   1.000000e+001 0.000000e+000 1.003945e+001
      vertex   5.000000e+000 0.000000e+000 1.003945e+001
      vertex   5.000000e+000 0.000000e+000 5.000000e+000
    endloop
  endfacet
  facet normal 1.000000e+000 0.000000e+000 -0.000000e+000
    outer loop
      vertex   2.500000e+001 1.000000e+000 0.000000e+000
      vertex   2.500000e+001 4.000000e+000 0.000000e+000
      vertex   2.500000e+001 0.000000e+000 1.000000e+000
    endloop
  endfacet
  facet normal 1.000000e+000 -0.000000e+000 0.000000e+000
    outer loop
      vertex   2.500000e+001 0.000000e+000 1.000000e+000
      vertex   2.500000e+001 4.000000e+000 0.000000e+000
      vertex   2.500000e+001 4.000000e+000 2.250000e+001
    endloop
  endfacet
  facet normal 1.000000e+000 0.000000e+000 0.000000e+000
    outer loop
      vertex   2.500000e+001 0.000000e+000 1.000000e+000
      vertex   2.500000e+001 4.000000e+000 2.250000e+001
      vertex   2.500000e+001 0.000000e+000 2.500000e+001
    endloop
  endfacet
  facet normal 1.000000e+000 -0.000000e+000 0.000000e+000
    outer loop
      vertex   2.500000e+001 0.000000e+000 2.500000e+001
      vertex   2.500000e+001 4.000000e+000 2.250000e+001
      vertex   2.500000e+001 6.650000e+001 2.500000e+001
    endloop
  endfacet
  facet normal 1.000000e+000 0.000000e+000 0.000000e+000
    outer loop
      vertex   2.500000e+001 6.650000e+001 2.500000e+001
      vertex   2.500000e+001 4.000000e+000 2.250000e+001
      vertex   2.500000e+001 6.400000e+001 2.250000e+001
    endloop
  endfacet
  facet normal 1.000000e+000 0.000000e+000 0.000000e+000
    outer loop
      vertex   2.500000e+001 6.650000e+001 2.500000e+001
      vertex   2.500000e+001 6.400000e+001 2.250000e+001
      vertex   2.500000e+001 6.650000e+001 0.000000e+000
    endloop
  endfacet
  facet normal 1.000000e+000 0.000000e+000 0.000000e+000
    outer loop
      vertex   2.500000e+001 6.650000e+001 0.000000e+000
      vertex   2.500000e+001 6.400000e+001 2.250000e+001
      vertex   2.500000e+001 6.400000e+001 2.000000e+000
    endloop
  endfacet
  facet normal 1.000000e+000 0.000000e+000 0.000000e+000
    outer loop
      vertex   2.500000e+001 6.650000e+001 0.000000e+000
      vertex   2.500000e+001 6.400000e+001 2.000000e+000
      vertex   2.500000e+001 6.400000e+001 0.000000e+000
    endloop
  endfacet
  facet normal 8.944272e-001 -4.472136e-001 0.000000e+000
    outer loop
      vertex   2.500000e+001 6.400000e+001 0.000000e+000
      vertex   1.500000e+001 4.400000e+001 2.000000e+000
      vertex   5.000000e+000 2.400000e+001 0.000000e+000
    endloop
  endfacet
  facet normal 8.944272e-001 -4.472136e-001 1.271057e-015
    outer loop
      vertex   5.000000e+000 2.400000e+001 0.000000e+000
      vertex   1.500000e+001 4.400000e+001 2.000000e+000
      vertex   1.000000e+001 3.400000e+001 2.000000e+000
    endloop
  endfacet
  facet normal 8.944272e-001 -4.472136e-001 7.944109e-016
    outer loop
      vertex   5.000000e+000 2.400000e+001 0.000000e+000
      vertex   1.000000e+001 3.400000e+001 2.000000e+000
      vertex   5.000000e+000 2.400000e+001 2.000000e+000
    endloop
  endfacet
  facet normal 8.944272e-001 -4.472136e-001 0.000000e+000
    outer loop
      vertex   2.500000e+001 6.400000e+001 2.000000e+000
      vertex   2.000000e+001 5.400000e+001 2.000000e+000
      vertex   2.500000e+001 6.400000e+001 0.000000e+000
    endloop
  endfacet
  facet normal 8.944272e-001 -4.472136e-001 0.000000e+000
    outer loop
      vertex   2.500000e+001 6.400000e+001 0.000000e+000
      vertex   2.000000e+001 5.400000e+001 2.000000e+000
      vertex   1.500000e+001 4.400000e+001 2.000000e+000
    endloop
  endfacet
  facet normal -3.552714e-016 1.776357e-016 1.000000e+000
    outer loop
      vertex   2.000000e+001 5.400000e+001 2.000000e+000
      vertex   2.500000e+001 6.400000e+001 2.000000e+000
      vertex   2.000000e+001 5.650000e+001 2.000000e+000
    endloop
  endfacet
  facet normal 0.000000e+000 -5.921189e-017 1.000000e+000
    outer loop
      vertex   2.000000e+001 5.650000e+001 2.000000e+000
      vertex   2.500000e+001 6.400000e+001 2.000000e+000
      vertex   2.000000e+001 6.400000e+001 2.000000e+000
    endloop
  endfacet
  facet normal 8.881784e-017 -5.921189e-017 1.000000e+000
    outer loop
      vertex   2.000000e+001 5.650000e+001 2.000000e+000
      vertex   2.000000e+001 6.400000e+001 2.000000e+000
      vertex   1.500000e+001 5.650000e+001 2.000000e+000
    endloop
  endfacet
  facet normal 0.000000e+000 0.000000e+000 1.000000e+000
    outer loop
      vertex   1.500000e+001 5.650000e+001 2.000000e+000
      vertex   2.000000e+001 6.400000e+001 2.000000e+000
      vertex   2.000000e+001 6.650000e+001 2.000000e+000
    endloop
  endfacet
  facet normal -3.552714e-016 1.776357e-016 1.000000e+000
    outer loop
      vertex   1.500000e+001 4.400000e+001 2.000000e+000
      vertex   2.000000e+001 5.400000e+001 2.000000e+000
      vertex   1.500000e+001 4.650000e+001 2.000000e+000
    endloop
  endfacet
  facet normal 0.000000e+000 -5.921189e-017 1.000000e+000
    outer loop
      vertex   1.500000e+001 4.650000e+001 2.000000e+000
      vertex   2.000000e+001 5.400000e+001 2.000000e+000
      vertex   1.500000e+001 5.400000e+001 2.000000e+000
    endloop
  endfacet
  facet normal 8.881784e-017 -5.921189e-017 1.000000e+000
    outer loop
      vertex   1.500000e+001 4.650000e+001 2.000000e+000
      vertex   1.500000e+001 5.400000e+001 2.000000e+000
      vertex   1.000000e+001 4.650000e+001 2.000000e+000
    endloop
  endfacet
  facet normal 0.000000e+000 0.000000e+000 1.000000e+000
    outer loop
      vertex   1.000000e+001 4.650000e+001 2.000000e+000
      vertex   1.500000e+001 5.400000e+001 2.000000e+000
      vertex   1.500000e+001 5.650000e+001 2.000000e+000
    endloop
  endfacet
  facet normal -3.552714e-016 1.776357e-016 1.000000e+000
    outer loop
      vertex   1.000000e+001 3.400000e+001 2.000000e+000
      vertex   1.500000e+001 4.400000e+001 2.000000e+000
      vertex   1.000000e+001 3.650000e+001 2.000000e+000
    endloop
  endfacet
  facet normal 0.000000e+000 -5.921189e-017 1.000000e+000
    outer loop
      vertex   1.000000e+001 3.650000e+001 2.000000e+000
      vertex   1.500000e+001 4.400000e+001 2.000000e+000
      vertex   1.000000e+001 4.400000e+001 2.000000e+000
    endloop
  endfacet
  facet normal 8.881784e-017 -5.921189e-017 1.000000e+000
    outer loop
      vertex   1.000000e+001 3.650000e+001 2.000000e+000
      vertex   1.000000e+001 4.400000e+001 2.000000e+000
      vertex   5.000000e+000 3.650000e+001 2.000000e+000
    endloop
  endfacet
  facet normal 0.000000e+000 0.000000e+000 1.000000e+000
    outer loop
      vertex   5.000000e+000 3.650000e+001 2.000000e+000
      vertex   1.000000e+001 4.400000e+001 2.000000e+000
      vertex   1.000000e+001 4.650000e+001 2.000000e+000
    endloop
  endfacet
  facet normal 0.000000e+000 0.000000e+000 1.000000e+000
    outer loop
      vertex   5.000000e+000 3.650000e+001 2.000000e+000
      vertex   0.000000e+000 2.650000e+001 2.000000e+000
      vertex   5.000000e+000 3.400000e+001 2.000000e+000
    endloop
  endfacet
  facet normal 0.000000e+000 0.000000e+000 1.000000e+000
    outer loop
      vertex   5.000000e+000 3.400000e+001 2.000000e+000
      vertex   0.000000e+000 2.650000e+001 2.000000e+000
      vertex   5.000000e+000 2.650000e+001 2.000000e+000
    endloop
  endfacet
  facet normal -0.000000e+000 0.000000e+000 1.000000e+000
    outer loop
      vertex   5.000000e+000 3.400000e+001 2.000000e+000
      vertex   5.000000e+000 2.650000e+001 2.000000e+000
      vertex   1.000000e+001 3.400000e+001 2.000000e+000
    endloop
  endfacet
  facet normal 0.000000e+000 0.000000e+000 1.000000e+000
    outer loop
      vertex   1.000000e+001 3.400000e+001 2.000000e+000
      vertex   5.000000e+000 2.650000e+001 2.000000e+000
      vertex   5.000000e+000 2.400000e+001 2.000000e+000
    endloop
  endfacet
  facet normal -8.944272e-001 4.472136e-001 0.000000e+000
    outer loop
      vertex   0.000000e+000 2.650000e+001 0.000000e+000
      vertex   1.000000e+001 4.650000e+001 2.000000e+000
      vertex   2.000000e+001 6.650000e+001 0.000000e+000
    endloop
  endfacet
  facet normal -8.944272e-001 4.472136e-001 0.000000e+000
    outer loop
      vertex   2.000000e+001 6.650000e+001 0.000000e+000
      vertex   1.000000e+001 4.650000e+001 2.000000e+000
      vertex   1.500000e+001 5.650000e+001 2.000000e+000
    endloop
  endfacet
  facet normal -8.944272e-001 4.472136e-001 0.000000e+000
    outer loop
      vertex   2.000000e+001 6.650000e+001 0.000000e+000
      vertex   1.500000e+001 5.650000e+001 2.000000e+000
      vertex   2.000000e+001 6.650000e+001 2.000000e+000
    endloop
  endfacet
  facet normal -8.944272e-001 4.472136e-001 -7.944109e-016
    outer loop
      vertex   0.000000e+000 2.650000e+001 2.000000e+000
      vertex   5.000000e+000 3.650000e+001 2.000000e+000
      vertex   0.000000e+000 2.650000e+001 0.000000e+000
    endloop
  endfacet
  facet normal -8.944272e-001 4.472136e-001 -1.271057e-015
    outer loop
      vertex   0.000000e+000 2.650000e+001 0.000000e+000
      vertex   5.000000e+000 3.650000e+001 2.000000e+000
      vertex   1.000000e+001 4.650000e+001 2.000000e+000
    endloop
  endfacet
  facet normal -1.000000e+000 0.000000e+000 0.000000e+000
    outer loop
      vertex   0.000000e+000 1.000000e+000 0.000000e+000
      vertex   0.000000e+000 0.000000e+000 1.000000e+000
      vertex   0.000000e+000 4.000000e+000 0.000000e+000
    endloop
  endfacet
  facet normal -1.000000e+000 0.000000e+000 0.000000e+000
    outer loop
      vertex   0.000000e+000 4.000000e+000 0.000000e+000
      vertex   0.000000e+000 0.000000e+000 1.000000e+000
      vertex   0.000000e+000 4.000000e+000 2.500000e+000
    endloop
  endfacet
  facet normal -1.000000e+000 -0.000000e+000 0.000000e+000
    outer loop
      vertex   0.000000e+000 4.000000e+000 2.500000e+000
      vertex   0.000000e+000 0.000000e+000 1.000000e+000
      vertex   0.000000e+000 0.000000e+000 5.000000e+000
    endloop
  endfacet
  facet normal -1.000000e+000 0.000000e+000 0.000000e+000
    outer loop
      vertex   0.000000e+000 4.000000e+000 2.500000e+000
      vertex   0.000000e+000 0.000000e+000 5.000000e+000
      vertex   0.000000e+000 4.000000e+000 4.707720e+000
    endloop
  endfacet
  facet normal -1.000000e+000 0.000000e+000 0.000000e+000
    outer loop
      vertex   0.000000e+000 4.000000e+000 4.707720e+000
      vertex   0.000000e+000 0.000000e+000 5.000000e+000
      vertex   0.000000e+000 4.000000e+000 5.000000e+000
    endloop
  endfacet
  facet normal -1.000000e+000 0.000000e+000 0.000000e+000
    outer loop
      vertex   0.000000e+000 4.000000e+000 2.500000e+000
      vertex   0.000000e+000 4.000000e+000 4.707720e+000
      vertex   0.000000e+000 2.400000e+001 2.500000e+000
    endloop
  endfacet
  facet normal -1.000000e+000 0.000000e+000 0.000000e+000
    outer loop
      vertex   0.000000e+000 2.400000e+001 2.500000e+000
      vertex   0.000000e+000 4.000000e+000 4.707720e+000
      vertex   0.000000e+000 2.650000e+001 4.707720e+000
    endloop
  endfacet
  facet normal -1.000000e+000 0.000000e+000 0.000000e+000
    outer loop
      vertex   0.000000e+000 2.400000e+001 2.500000e+000
      vertex   0.000000e+000 2.650000e+001 4.707720e+000
      vertex   0.000000e+000 2.650000e+001 2.000000e+000
    endloop
  endfacet
  facet normal -1.000000e+000 0.000000e+000 0.000000e+000
    outer loop
      vertex   0.000000e+000 2.650000e+001 0.000000e+000
      vertex   0.000000e+000 2.400000e+001 0.000000e+000
      vertex   0.000000e+000 2.650000e+001 2.000000e+000
    endloop
  endfacet
  facet normal -1.000000e+000 -0.000000e+000 0.000000e+000
    outer loop
      vertex   0.000000e+000 2.650000e+001 2.000000e+000
      vertex   0.000000e+000 2.400000e+001 0.000000e+000
      vertex   0.000000e+000 2.400000e+001 2.500000e+000
    endloop
  endfacet
  facet normal -0.000000e+000 -1.000000e+000 -7.105427e-015
    outer loop
      vertex   5.000000e+000 2.400000e+001 2.500000e+000
      vertex   0.000000e+000 2.400000e+001 2.500000e+000
      vertex   5.000000e+000 2.400000e+001 2.000000e+000
    endloop
  endfacet
  facet normal 7.105427e-016 -1.000000e+000 0.000000e+000
    outer loop
      vertex   5.000000e+000 2.400000e+001 2.000000e+000
      vertex   0.000000e+000 2.400000e+001 2.500000e+000
      vertex   0.000000e+000 2.400000e+001 0.000000e+000
    endloop
  endfacet
  facet normal 0.000000e+000 -1.000000e+000 1.776357e-015
    outer loop
      vertex   5.000000e+000 2.400000e+001 2.000000e+000
      vertex   0.000000e+000 2.400000e+001 0.000000e+000
      vertex   5.000000e+000 2.400000e+001 0.000000e+000
    endloop
  endfacet
  facet normal 1.000000e+000 -7.105427e-016 -3.218197e-016
    outer loop
      vertex   1.000000e+001 3.400000e+001 2.000000e+000
      vertex   1.000000e+001 3.650000e+001 2.000000e+000
      vertex   1.000000e+001 3.400000e+001 7.519727e+000
    endloop
  endfacet
  facet normal 1.000000e+000 -0.000000e+000 0.000000e+000
    outer loop
      vertex   1.000000e+001 3.400000e+001 7.519727e+000
      vertex   1.000000e+001 3.650000e+001 2.000000e+000
      vertex   1.000000e+001 3.650000e+001 1.003945e+001
    endloop
  endfacet
  facet normal 1.000000e+000 0.000000e+000 -0.000000e+000
    outer loop
      vertex   1.000000e+001 3.400000e+001 7.519727e+000
      vertex   1.000000e+001 3.650000e+001 1.003945e+001
      vertex   1.000000e+001 4.000000e+000 1.003945e+001
    endloop
  endfacet
  facet normal 1.000000e+000 0.000000e+000 0.000000e+000
    outer loop
      vertex   1.000000e+001 4.000000e+000 1.003945e+001
      vertex   1.000000e+001 4.000000e+000 7.519727e+000
      vertex   1.000000e+001 3.400000e+001 7.519727e+000
    endloop
  endfacet
  facet normal -0.000000e+000 1.000000e+000 0.000000e+000
    outer loop
      vertex   5.000000e+000 3.650000e+001 2.000000e+000
      vertex   5.000000e+000 3.650000e+001 1.003945e+001
      vertex   1.000000e+001 3.650000e+001 2.000000e+000
    endloop
  endfacet
  facet normal 0.000000e+000 1.000000e+000 -0.000000e+000
    outer loop
      vertex   1.000000e+001 3.650000e+001 2.000000e+000
      vertex   5.000000e+000 3.650000e+001 1.003945e+001
      vertex   1.000000e+001 3.650000e+001 1.003945e+001
    endloop
  endfacet
  facet normal 1.000000e+000 -0.000000e+000 0.000000e+000
    outer loop
      vertex   1.500000e+001 4.400000e+001 2.000000e+000
      vertex   1.500000e+001 4.650000e+001 2.000000e+000
      vertex   1.500000e+001 4.400000e+001 1.251973e+001
    endloop
  endfacet
  facet normal 1.000000e+000 -0.000000e+000 0.000000e+000
    outer loop
      vertex   1.500000e+001 4.400000e+001 1.251973e+001
      vertex   1.500000e+001 4.650000e+001 2.000000e+000
      vertex   1.500000e+001 4.650000e+001 1.500000e+001
    endloop
  endfacet
  facet normal 1.000000e+000 0.000000e+000 -0.000000e+000
    outer loop
      vertex   1.500000e+001 4.400000e+001 1.251973e+001
      vertex   1.500000e+001 4.650000e+001 1.500000e+001
      vertex   1.500000e+001 4.000000e+000 1.500000e+001
    endloop
  endfacet
  facet normal 1.000000e+000 0.000000e+000 0.000000e+000
    outer loop
      vertex   1.500000e+001 4.000000e+000 1.500000e+001
      vertex   1.500000e+001 4.000000e+000 1.251973e+001
      vertex   1.500000e+001 4.400000e+001 1.251973e+001
    endloop
  endfacet
  facet normal -0.000000e+000 1.000000e+000 0.000000e+000
    outer loop
      vertex   1.000000e+001 4.650000e+001 2.000000e+000
      vertex   1.000000e+001 4.650000e+001 1.500000e+001
      vertex   1.500000e+001 4.650000e+001 2.000000e+000
    endloop
  endfacet
  facet normal 0.000000e+000 1.000000e+000 -0.000000e+000
    outer loop
      vertex   1.500000e+001 4.650000e+001 2.000000e+000
      vertex   1.000000e+001 4.650000e+001 1.500000e+001
      vertex   1.500000e+001 4.650000e+001 1.500000e+001
    endloop
  endfacet
  facet normal 1.000000e+000 -0.000000e+000 0.000000e+000
    outer loop
      vertex   2.000000e+001 5.400000e+001 2.000000e+000
      vertex   2.000000e+001 5.650000e+001 2.000000e+000
      vertex   2.000000e+001 5.400000e+001 1.750000e+001
    endloop
  endfacet
  facet normal 1.000000e+000 -0.000000e+000 0.000000e+000
    outer loop
      vertex   2.000000e+001 5.400000e+001 1.750000e+001
      vertex   2.000000e+001 5.650000e+001 2.000000e+000
      vertex   2.000000e+001 5.650000e+001 2.000000e+001
    endloop
  endfacet
  facet normal 1.000000e+000 0.000000e+000 -0.000000e+000
    outer loop
      vertex   2.000000e+001 5.400000e+001 1.750000e+001
      vertex   2.000000e+001 5.650000e+001 2.000000e+001
      vertex   2.000000e+001 4.000000e+000 2.000000e+001
    endloop
  endfacet
  facet normal 1.000000e+000 0.000000e+000 0.000000e+000
    outer loop
      vertex   2.000000e+001 4.000000e+000 2.000000e+001
      vertex   2.000000e+001 4.000000e+000 1.750000e+001
      vertex   2.000000e+001 5.400000e+001 1.750000e+001
    endloop
  endfacet
  facet normal -0.000000e+000 1.000000e+000 0.000000e+000
    outer loop
      vertex   1.500000e+001 5.650000e+001 2.000000e+000
      vertex   1.500000e+001 5.650000e+001 2.000000e+001
      vertex   2.000000e+001 5.650000e+001 2.000000e+000
    endloop
  endfacet
  facet normal 0.000000e+000 1.000000e+000 -0.000000e+000
    outer loop
      vertex   2.000000e+001 5.650000e+001 2.000000e+000
      vertex   1.500000e+001 5.650000e+001 2.000000e+001
      vertex   2.000000e+001 5.650000e+001 2.000000e+001
    endloop
  endfacet
  facet normal -0.000000e+000 1.000000e+000 0.000000e+000
    outer loop
      vertex   2.000000e+001 6.650000e+001 2.500000e+001
      vertex   2.500000e+001 6.650000e+001 2.500000e+001
      vertex   2.000000e+001 6.650000e+001 2.000000e+000
    endloop
  endfacet
  facet normal -0.000000e+000 1.000000e+000 0.000000e+000
    outer loop
      vertex   2.000000e+001 6.650000e+001 2.000000e+000
      vertex   2.500000e+001 6.650000e+001 2.500000e+001
      vertex   2.500000e+001 6.650000e+001 0.000000e+000
    endloop
  endfacet
  facet normal 0.000000e+000 1.000000e+000 0.000000e+000
    outer loop
      vertex   2.000000e+001 6.650000e+001 2.000000e+000
      vertex   2.500000e+001 6.650000e+001 0.000000e+000
      vertex   2.000000e+001 6.650000e+001 0.000000e+000
    endloop
  endfacet
  facet normal 0.000000e+000 0.000000e+000 -1.000000e+000
    outer loop
      vertex   0.000000e+000 2.400000e+001 0.000000e+000
      vertex   0.000000e+000 2.650000e+001 0.000000e+000
      vertex   5.000000e+000 2.400000e+001 0.000000e+000
    endloop
  endfacet
  facet normal 0.000000e+000 0.000000e+000 -1.000000e+000
    outer loop
      vertex   5.000000e+000 2.400000e+001 0.000000e+000
      vertex   0.000000e+000 2.650000e+001 0.000000e+000
      vertex   2.000000e+001 6.650000e+001 0.000000e+000
    endloop
  endfacet
  facet normal 0.000000e+000 0.000000e+000 -1.000000e+000
    outer loop
      vertex   5.000000e+000 2.400000e+001 0.000000e+000
      vertex   2.000000e+001 6.650000e+001 0.000000e+000
      vertex   2.500000e+001 6.400000e+001 0.000000e+000
    endloop
  endfacet
  facet normal 0.000000e+000 0.000000e+000 -1.000000e+000
    outer loop
      vertex   2.500000e+001 6.400000e+001 0.000000e+000
      vertex   2.000000e+001 6.650000e+001 0.000000e+000
      vertex   2.500000e+001 6.650000e+001 0.000000e+000
    endloop
  endfacet
  facet normal 7.105427e-016 1.000000e+000 1.312068e-015
    outer loop
      vertex   0.000000e+000 2.650000e+001 2.000000e+000
      vertex   0.000000e+000 2.650000e+001 4.707720e+000
      vertex   5.000000e+000 2.650000e+001 2.000000e+000
    endloop
  endfacet
  facet normal 0.000000e+000 1.000000e+000 -0.000000e+000
    outer loop
      vertex   5.000000e+000 2.650000e+001 2.000000e+000
      vertex   0.000000e+000 2.650000e+001 4.707720e+000
      vertex   5.000000e+000 2.650000e+001 4.707720e+000
    endloop
  endfacet
  facet normal 0.000000e+000 -1.000000e+000 0.000000e+000
    outer loop
      vertex   1.000000e+001 3.400000e+001 2.000000e+000
      vertex   1.000000e+001 3.400000e+001 7.519727e+000
      vertex   5.000000e+000 3.400000e+001 2.000000e+000
    endloop
  endfacet
  facet normal 0.000000e+000 -1.000000e+000 0.000000e+000
    outer loop
      vertex   5.000000e+000 3.400000e+001 2.000000e+000
      vertex   1.000000e+001 3.400000e+001 7.519727e+000
      vertex   5.000000e+000 3.400000e+001 7.519727e+000
    endloop
  endfacet
  facet normal 0.000000e+000 -1.000000e+000 0.000000e+000
    outer loop
      vertex   1.500000e+001 4.400000e+001 2.000000e+000
      vertex   1.500000e+001 4.400000e+001 1.251973e+001
      vertex   1.000000e+001 4.400000e+001 2.000000e+000
    endloop
  endfacet
  facet normal 0.000000e+000 -1.000000e+000 0.000000e+000
    outer loop
      vertex   1.000000e+001 4.400000e+001 2.000000e+000
      vertex   1.500000e+001 4.400000e+001 1.251973e+001
      vertex   1.000000e+001 4.400000e+001 1.251973e+001
    endloop
  endfacet
  facet normal 0.000000e+000 -1.000000e+000 0.000000e+000
    outer loop
      vertex   2.000000e+001 5.400000e+001 2.000000e+000
      vertex   2.000000e+001 5.400000e+001 1.750000e+001
      vertex   1.500000e+001 5.400000e+001 2.000000e+000
    endloop
  endfacet
  facet normal 0.000000e+000 -1.000000e+000 0.000000e+000
    outer loop
      vertex   1.500000e+001 5.400000e+001 2.000000e+000
      vertex   2.000000e+001 5.400000e+001 1.750000e+001
      vertex   1.500000e+001 5.400000e+001 1.750000e+001
    endloop
  endfacet
  facet normal 0.000000e+000 -1.000000e+000 0.000000e+000
    outer loop
      vertex   2.500000e+001 6.400000e+001 2.000000e+000
      vertex   2.500000e+001 6.400000e+001 2.250000e+001
      vertex   2.000000e+001 6.400000e+001 2.000000e+000
    endloop
  endfacet
  facet normal 0.000000e+000 -1.000000e+000 0.000000e+000
    outer loop
      vertex   2.000000e+001 6.400000e+001 2.000000e+000
      vertex   2.500000e+001 6.400000e+001 2.250000e+001
      vertex   2.000000e+001 6.400000e+001 2.250000e+001
    endloop
  endfacet
  facet normal 0.000000e+000 0.000000e+000 -1.000000e+000
    outer loop
      vertex   2.500000e+001 4.000000e+000 2.250000e+001
      vertex   2.000000e+001 4.000000e+000 2.250000e+001
      vertex   2.500000e+001 6.400000e+001 2.250000e+001
    endloop
  endfacet
  facet normal -0.000000e+000 0.000000e+000 -1.000000e+000
    outer loop
      vertex   2.500000e+001 6.400000e+001 2.250000e+001
      vertex   2.000000e+001 4.000000e+000 2.250000e+001
      vertex   2.000000e+001 6.400000e+001 2.250000e+001
    endloop
  endfacet
  facet normal 0.000000e+000 0.000000e+000 -1.000000e+000
    outer loop
      vertex   2.000000e+001 4.000000e+000 1.750000e+001
      vertex   1.500000e+001 4.000000e+000 1.750000e+001
      vertex   2.000000e+001 5.400000e+001 1.750000e+001
    endloop
  endfacet
  facet normal -0.000000e+000 0.000000e+000 -1.000000e+000
    outer loop
      vertex   2.000000e+001 5.400000e+001 1.750000e+001
      vertex   1.500000e+001 4.000000e+000 1.750000e+001
      vertex   1.500000e+001 5.400000e+001 1.750000e+001
    endloop
  endfacet
  facet normal 0.000000e+000 0.000000e+000 -1.000000e+000
    outer loop
      vertex   1.500000e+001 4.000000e+000 1.251973e+001
      vertex   1.000000e+001 4.000000e+000 1.251973e+001
      vertex   1.500000e+001 4.400000e+001 1.251973e+001
    endloop
  endfacet
  facet normal -0.000000e+000 0.000000e+000 -1.000000e+000
    outer loop
      vertex   1.500000e+001 4.400000e+001 1.251973e+001
      vertex   1.000000e+001 4.000000e+000 1.251973e+001
      vertex   1.000000e+001 4.400000e+001 1.251973e+001
    endloop
  endfacet
  facet normal 0.000000e+000 0.000000e+000 -1.000000e+000
    outer loop
      vertex   1.000000e+001 4.000000e+000 7.519727e+000
      vertex   5.000000e+000 4.000000e+000 7.519727e+000
      vertex   1.000000e+001 3.400000e+001 7.519727e+000
    endloop
  endfacet
  facet normal -0.000000e+000 0.000000e+000 -1.000000e+000
    outer loop
      vertex   1.000000e+001 3.400000e+001 7.519727e+000
      vertex   5.000000e+000 4.000000e+000 7.519727e+000
      vertex   5.000000e+000 3.400000e+001 7.519727e+000
    endloop
  endfacet
  facet normal 0.000000e+000 0.000000e+000 -1.000000e+000
    outer loop
      vertex   5.000000e+000 4.000000e+000 2.500000e+000
      vertex   0.000000e+000 4.000000e+000 2.500000e+000
      vertex   5.000000e+000 2.400000e+001 2.500000e+000
    endloop
  endfacet
  facet normal -0.000000e+000 0.000000e+000 -1.000000e+000
    outer loop
      vertex   5.000000e+000 2.400000e+001 2.500000e+000
      vertex   0.000000e+000 4.000000e+000 2.500000e+000
      vertex   0.000000e+000 2.400000e+001 2.500000e+000
    endloop
  endfacet
  facet normal 1.000000e+000 0.000000e+000 -0.000000e+000
    outer loop
      vertex   5.000000e+000 2.400000e+001 2.000000e+000
      vertex   5.000000e+000 2.650000e+001 2.000000e+000
      vertex   5.000000e+000 2.400000e+001 2.500000e+000
    endloop
  endfacet
  facet normal 1.000000e+000 -0.000000e+000 0.000000e+000
    outer loop
      vertex   5.000000e+000 2.400000e+001 2.500000e+000
      vertex   5.000000e+000 2.650000e+001 2.000000e+000
      vertex   5.000000e+000 2.650000e+001 4.707720e+000
    endloop
  endfacet
  facet normal 1.000000e+000 0.000000e+000 -0.000000e+000
    outer loop
      vertex   5.000000e+000 2.400000e+001 2.500000e+000
      vertex   5.000000e+000 2.650000e+001 4.707720e+000
      vertex   5.000000e+000 4.000000e+000 4.707720e+000
    endloop
  endfacet
  facet normal 1.000000e+000 0.000000e+000 0.000000e+000
    outer loop
      vertex   5.000000e+000 4.000000e+000 4.707720e+000
      vertex   5.000000e+000 4.000000e+000 2.500000e+000
      vertex   5.000000e+000 2.400000e+001 2.500000e+000
    endloop
  endfacet
  facet normal 0.000000e+000 0.000000e+000 1.000000e+000
    outer loop
      vertex   0.000000e+000 4.000000e+000 4.707720e+000
      vertex   5.000000e+000 4.000000e+000 4.707720e+000
      vertex   0.000000e+000 2.650000e+001 4.707720e+000
    endloop
  endfacet
  facet normal -0.000000e+000 0.000000e+000 1.000000e+000
    outer loop
      vertex   0.000000e+000 2.650000e+001 4.707720e+000
      vertex   5.000000e+000 4.000000e+000 4.707720e+000
      vertex   5.000000e+000 2.650000e+001 4.707720e+000
    endloop
  endfacet
  facet normal -0.000000e+000 1.000000e+000 0.000000e+000
    outer loop
      vertex   2.000000e+001 4.000000e+000 2.250000e+001
      vertex   2.500000e+001 4.000000e+000 2.250000e+001
      vertex   2.000000e+001 4.000000e+000 2.000000e+001
    endloop
  endfacet
  facet normal -0.000000e+000 1.000000e+000 0.000000e+000
    outer loop
      vertex   2.000000e+001 4.000000e+000 2.000000e+001
      vertex   2.500000e+001 4.000000e+000 2.250000e+001
      vertex   2.000000e+001 4.000000e+000 1.750000e+001
    endloop
  endfacet
  facet normal -0.000000e+000 1.000000e+000 0.000000e+000
    outer loop
      vertex   2.000000e+001 4.000000e+000 1.750000e+001
      vertex   2.500000e+001 4.000000e+000 2.250000e+001
      vertex   2.500000e+001 4.000000e+000 0.000000e+000
    endloop
  endfacet
  facet normal 0.000000e+000 1.000000e+000 0.000000e+000
    outer loop
      vertex   2.000000e+001 4.000000e+000 1.750000e+001
      vertex   2.500000e+001 4.000000e+000 0.000000e+000
      vertex   1.500000e+001 4.000000e+000 1.251973e+001
    endloop
  endfacet
  facet normal 0.000000e+000 1.000000e+000 0.000000e+000
    outer loop
      vertex   1.500000e+001 4.000000e+000 1.251973e+001
      vertex   2.500000e+001 4.000000e+000 0.000000e+000
      vertex   1.000000e+001 4.000000e+000 7.519727e+000
    endloop
  endfacet
  facet normal 0.000000e+000 1.000000e+000 0.000000e+000
    outer loop
      vertex   1.500000e+001 4.000000e+000 1.251973e+001
      vertex   1.000000e+001 4.000000e+000 7.519727e+000
      vertex   1.000000e+001 4.000000e+000 1.003945e+001
    endloop
  endfacet
  facet normal 0.000000e+000 1.000000e+000 0.000000e+000
    outer loop
      vertex   1.000000e+001 4.000000e+000 7.519727e+000
      vertex   2.500000e+001 4.000000e+000 0.000000e+000
      vertex   5.000000e+000 4.000000e+000 2.500000e+000
    endloop
  endfacet
  facet normal 0.000000e+000 1.000000e+000 0.000000e+000
    outer loop
      vertex   5.000000e+000 4.000000e+000 2.500000e+000
      vertex   2.500000e+001 4.000000e+000 0.000000e+000
      vertex   0.000000e+000 4.000000e+000 0.000000e+000
    endloop
  endfacet
  facet normal 0.000000e+000 1.000000e+000 0.000000e+000
    outer loop
      vertex   5.000000e+000 4.000000e+000 2.500000e+000
      vertex   0.000000e+000 4.000000e+000 0.000000e+000
      vertex   0.000000e+000 4.000000e+000 2.500000e+000
    endloop
  endfacet
  facet normal 0.000000e+000 1.000000e+000 0.000000e+000
    outer loop
      vertex   5.000000e+000 4.000000e+000 2.500000e+000
      vertex   5.000000e+000 4.000000e+000 4.707720e+000
      vertex   1.000000e+001 4.000000e+000 7.519727e+000
    endloop
  endfacet
  facet normal 0.000000e+000 1.000000e+000 0.000000e+000
    outer loop
      vertex   1.000000e+001 4.000000e+000 7.519727e+000
      vertex   5.000000e+000 4.000000e+000 4.707720e+000
      vertex   5.000000e+000 4.000000e+000 5.000000e+000
    endloop
  endfacet
  facet normal 0.000000e+000 1.000000e+000 0.000000e+000
    outer loop
      vertex   1.000000e+001 4.000000e+000 7.519727e+000
      vertex   5.000000e+000 4.000000e+000 5.000000e+000
      vertex   5.000000e+000 4.000000e+000 7.519727e+000
    endloop
  endfacet
  facet normal 0.000000e+000 1.000000e+000 0.000000e+000
    outer loop
      vertex   0.000000e+000 4.000000e+000 4.707720e+000
      vertex   0.000000e+000 4.000000e+000 5.000000e+000
      vertex   5.000000e+000 4.000000e+000 4.707720e+000
    endloop
  endfacet
  facet normal 0.000000e+000 1.000000e+000 -0.000000e+000
    outer loop
      vertex   5.000000e+000 4.000000e+000 4.707720e+000
      vertex   0.000000e+000 4.000000e+000 5.000000e+000
      vertex   5.000000e+000 4.000000e+000 5.000000e+000
    endloop
  endfacet
  facet normal 0.000000e+000 1.000000e+000 0.000000e+000
    outer loop
      vertex   1.000000e+001 4.000000e+000 1.003945e+001
      vertex   1.000000e+001 4.000000e+000 1.251973e+001
      vertex   1.500000e+001 4.000000e+000 1.251973e+001
    endloop
  endfacet
  facet normal 0.000000e+000 1.000000e+000 0.000000e+000
    outer loop
      vertex   1.500000e+001 4.000000e+000 1.251973e+001
      vertex   1.500000e+001 4.000000e+000 1.500000e+001
      vertex   2.000000e+001 4.000000e+000 1.750000e+001
    endloop
  endfacet
  facet normal 0.000000e+000 1.000000e+000 0.000000e+000
    outer loop
      vertex   2.000000e+001 4.000000e+000 1.750000e+001
      vertex   1.500000e+001 4.000000e+000 1.500000e+001
      vertex   1.500000e+001 4.000000e+000 1.750000e+001
    endloop
  endfacet
  facet normal -1.000000e+000 0.000000e+000 0.000000e+000
    outer loop
      vertex   1.000000e+001 4.400000e+001 2.000000e+000
      vertex   1.000000e+001 4.400000e+001 1.251973e+001
      vertex   1.000000e+001 4.650000e+001 2.000000e+000
    endloop
  endfacet
  facet normal -1.000000e+000 0.000000e+000 0.000000e+000
    outer loop
      vertex   1.000000e+001 4.650000e+001 2.000000e+000
      vertex   1.000000e+001 4.400000e+001 1.251973e+001
      vertex   1.000000e+001 4.650000e+001 1.500000e+001
    endloop
  endfacet
  facet normal -1.000000e+000 0.000000e+000 0.000000e+000
    outer loop
      vertex   1.000000e+001 4.650000e+001 1.500000e+001
      vertex   1.000000e+001 4.400000e+001 1.251973e+001
      vertex   1.000000e+001 4.000000e+000 1.251973e+001
    endloop
  endfacet
  facet normal -1.000000e+000 -0.000000e+000 0.000000e+000
    outer loop
      vertex   1.000000e+001 4.650000e+001 1.500000e+001
      vertex   1.000000e+001 4.000000e+000 1.251973e+001
      vertex   1.000000e+001 0.000000e+000 1.500000e+001
    endloop
  endfacet
  facet normal -1.000000e+000 0.000000e+000 0.000000e+000
    outer loop
      vertex   1.000000e+001 0.000000e+000 1.500000e+001
      vertex   1.000000e+001 4.000000e+000 1.251973e+001
      vertex   1.000000e+001 0.000000e+000 1.003945e+001
    endloop
  endfacet
  facet normal -1.000000e+000 0.000000e+000 0.000000e+000
    outer loop
      vertex   1.000000e+001 0.000000e+000 1.003945e+001
      vertex   1.000000e+001 4.000000e+000 1.251973e+001
      vertex   1.000000e+001 4.000000e+000 1.003945e+001
    endloop
  endfacet
  facet normal 0.000000e+000 -0.000000e+000 1.000000e+000
    outer loop
      vertex   1.000000e+001 0.000000e+000 1.003945e+001
      vertex   1.000000e+001 4.000000e+000 1.003945e+001
      vertex   5.000000e+000 0.000000e+000 1.003945e+001
    endloop
  endfacet
  facet normal 0.000000e+000 0.000000e+000 1.000000e+000
    outer loop
      vertex   5.000000e+000 0.000000e+000 1.003945e+001
      vertex   1.000000e+001 4.000000e+000 1.003945e+001
      vertex   5.000000e+000 3.650000e+001 1.003945e+001
    endloop
  endfacet
  facet normal -0.000000e+000 0.000000e+000 1.000000e+000
    outer loop
      vertex   5.000000e+000 3.650000e+001 1.003945e+001
      vertex   1.000000e+001 4.000000e+000 1.003945e+001
      vertex   1.000000e+001 3.650000e+001 1.003945e+001
    endloop
  endfacet
  facet normal -1.000000e+000 -7.105427e-016 0.000000e+000
    outer loop
      vertex   5.000000e+000 3.400000e+001 2.000000e+000
      vertex   5.000000e+000 3.400000e+001 7.519727e+000
      vertex   5.000000e+000 3.650000e+001 2.000000e+000
    endloop
  endfacet
  facet normal -1.000000e+000 -2.226984e-016 2.209549e-016
    outer loop
      vertex   5.000000e+000 3.650000e+001 2.000000e+000
      vertex   5.000000e+000 3.400000e+001 7.519727e+000
      vertex   5.000000e+000 3.650000e+001 1.003945e+001
    endloop
  endfacet
  facet normal -1.000000e+000 0.000000e+000 0.000000e+000
    outer loop
      vertex   5.000000e+000 3.650000e+001 1.003945e+001
      vertex   5.000000e+000 3.400000e+001 7.519727e+000
      vertex   5.000000e+000 4.000000e+000 7.519727e+000
    endloop
  endfacet
  facet normal -1.000000e+000 -0.000000e+000 0.000000e+000
    outer loop
      vertex   5.000000e+000 3.650000e+001 1.003945e+001
      vertex   5.000000e+000 4.000000e+000 7.519727e+000
      vertex   5.000000e+000 0.000000e+000 1.003945e+001
    endloop
  endfacet
  facet normal -1.000000e+000 0.000000e+000 0.000000e+000
    outer loop
      vertex   5.000000e+000 0.000000e+000 1.003945e+001
      vertex   5.000000e+000 4.000000e+000 7.519727e+000
      vertex   5.000000e+000 0.000000e+000 5.000000e+000
    endloop
  endfacet
  facet normal -1.000000e+000 0.000000e+000 0.000000e+000
    outer loop
      vertex   5.000000e+000 0.000000e+000 5.000000e+000
      vertex   5.000000e+000 4.000000e+000 7.519727e+000
      vertex   5.000000e+000 4.000000e+000 5.000000e+000
    endloop
  endfacet
  facet normal 0.000000e+000 0.000000e+000 1.000000e+000
    outer loop
      vertex   0.000000e+000 0.000000e+000 5.000000e+000
      vertex   5.000000e+000 0.000000e+000 5.000000e+000
      vertex   0.000000e+000 4.000000e+000 5.000000e+000
    endloop
  endfacet
  facet normal -0.000000e+000 0.000000e+000 1.000000e+000
    outer loop
      vertex   0.000000e+000 4.000000e+000 5.000000e+000
      vertex   5.000000e+000 0.000000e+000 5.000000e+000
      vertex   5.000000e+000 4.000000e+000 5.000000e+000
    endloop
  endfacet
  facet normal 0.000000e+000 0.000000e+000 -1.000000e+000
    outer loop
      vertex   2.500000e+001 1.000000e+000 0.000000e+000
      vertex   0.000000e+000 1.000000e+000 0.000000e+000
      vertex   2.500000e+001 4.000000e+000 0.000000e+000
    endloop
  endfacet
  facet normal -0.000000e+000 0.000000e+000 -1.000000e+000
    outer loop
      vertex   2.500000e+001 4.000000e+000 0.000000e+000
      vertex   0.000000e+000 1.000000e+000 0.000000e+000
      vertex   0.000000e+000 4.000000e+000 0.000000e+000
    endloop
  endfacet
  facet normal 0.000000e+000 0.000000e+000 1.000000e+000
    outer loop
      vertex   2.000000e+001 0.000000e+000 2.500000e+001
      vertex   2.500000e+001 0.000000e+000 2.500000e+001
      vertex   2.000000e+001 6.650000e+001 2.500000e+001
    endloop
  endfacet
  facet normal -0.000000e+000 0.000000e+000 1.000000e+000
    outer loop
      vertex   2.000000e+001 6.650000e+001 2.500000e+001
      vertex   2.500000e+001 0.000000e+000 2.500000e+001
      vertex   2.500000e+001 6.650000e+001 2.500000e+001
    endloop
  endfacet
  facet normal -1.000000e+000 0.000000e+000 0.000000e+000
    outer loop
      vertex   2.000000e+001 6.400000e+001 2.000000e+000
      vertex   2.000000e+001 6.400000e+001 2.250000e+001
      vertex   2.000000e+001 6.650000e+001 2.000000e+000
    endloop
  endfacet
  facet normal -1.000000e+000 0.000000e+000 0.000000e+000
    outer loop
      vertex   2.000000e+001 6.650000e+001 2.000000e+000
      vertex   2.000000e+001 6.400000e+001 2.250000e+001
      vertex   2.000000e+001 6.650000e+001 2.500000e+001
    endloop
  endfacet
  facet normal -1.000000e+000 0.000000e+000 0.000000e+000
    outer loop
      vertex   2.000000e+001 6.650000e+001 2.500000e+001
      vertex   2.000000e+001 6.400000e+001 2.250000e+001
      vertex   2.000000e+001 4.000000e+000 2.250000e+001
    endloop
  endfacet
  facet normal -1.000000e+000 -0.000000e+000 0.000000e+000
    outer loop
      vertex   2.000000e+001 6.650000e+001 2.500000e+001
      vertex   2.000000e+001 4.000000e+000 2.250000e+001
      vertex   2.000000e+001 0.000000e+000 2.500000e+001
    endloop
  endfacet
  facet normal -1.000000e+000 0.000000e+000 0.000000e+000
    outer loop
      vertex   2.000000e+001 0.000000e+000 2.500000e+001
      vertex   2.000000e+001 4.000000e+000 2.250000e+001
      vertex   2.000000e+001 0.000000e+000 2.000000e+001
    endloop
  endfacet
  facet normal -1.000000e+000 0.000000e+000 0.000000e+000
    outer loop
      vertex   2.000000e+001 0.000000e+000 2.000000e+001
      vertex   2.000000e+001 4.000000e+000 2.250000e+001
      vertex   2.000000e+001 4.000000e+000 2.000000e+001
    endloop
  endfacet
  facet normal 0.000000e+000 -0.000000e+000 1.000000e+000
    outer loop
      vertex   2.000000e+001 0.000000e+000 2.000000e+001
      vertex   2.000000e+001 4.000000e+000 2.000000e+001
      vertex   1.500000e+001 0.000000e+000 2.000000e+001
    endloop
  endfacet
  facet normal 0.000000e+000 0.000000e+000 1.000000e+000
    outer loop
      vertex   1.500000e+001 0.000000e+000 2.000000e+001
      vertex   2.000000e+001 4.000000e+000 2.000000e+001
      vertex   1.500000e+001 5.650000e+001 2.000000e+001
    endloop
  endfacet
  facet normal -0.000000e+000 0.000000e+000 1.000000e+000
    outer loop
      vertex   1.500000e+001 5.650000e+001 2.000000e+001
      vertex   2.000000e+001 4.000000e+000 2.000000e+001
      vertex   2.000000e+001 5.650000e+001 2.000000e+001
    endloop
  endfacet
  facet normal -1.000000e+000 0.000000e+000 0.000000e+000
    outer loop
      vertex   1.500000e+001 5.400000e+001 2.000000e+000
      vertex   1.500000e+001 5.400000e+001 1.750000e+001
      vertex   1.500000e+001 5.650000e+001 2.000000e+000
    endloop
  endfacet
  facet normal -1.000000e+000 0.000000e+000 0.000000e+000
    outer loop
      vertex   1.500000e+001 5.650000e+001 2.000000e+000
      vertex   1.500000e+001 5.400000e+001 1.750000e+001
      vertex   1.500000e+001 5.650000e+001 2.000000e+001
    endloop
  endfacet
  facet normal -1.000000e+000 0.000000e+000 0.000000e+000
    outer loop
      vertex   1.500000e+001 5.650000e+001 2.000000e+001
      vertex   1.500000e+001 5.400000e+001 1.750000e+001
      vertex   1.500000e+001 4.000000e+000 1.750000e+001
    endloop
  endfacet
  facet normal -1.000000e+000 -0.000000e+000 0.000000e+000
    outer loop
      vertex   1.500000e+001 5.650000e+001 2.000000e+001
      vertex   1.500000e+001 4.000000e+000 1.750000e+001
      vertex   1.500000e+001 0.000000e+000 2.000000e+001
    endloop
  endfacet
  facet normal -1.000000e+000 0.000000e+000 0.000000e+000
    outer loop
      vertex   1.500000e+001 0.000000e+000 2.000000e+001
      vertex   1.500000e+001 4.000000e+000 1.750000e+001
      vertex   1.500000e+001 0.000000e+000 1.500000e+001
    endloop
  endfacet
  facet normal -1.000000e+000 0.000000e+000 0.000000e+000
    outer loop
      vertex   1.500000e+001 0.000000e+000 1.500000e+001
      vertex   1.500000e+001 4.000000e+000 1.750000e+001
      vertex   1.500000e+001 4.000000e+000 1.500000e+001
    endloop
  endfacet
  facet normal 0.000000e+000 -0.000000e+000 1.000000e+000
    outer loop
      vertex   1.500000e+001 0.000000e+000 1.500000e+001
      vertex   1.500000e+001 4.000000e+000 1.500000e+001
      vertex   1.000000e+001 0.000000e+000 1.500000e+001
    endloop
  endfacet
  facet normal 0.000000e+000 0.000000e+000 1.000000e+000
    outer loop
      vertex   1.000000e+001 0.000000e+000 1.500000e+001
      vertex   1.500000e+001 4.000000e+000 1.500000e+001
      vertex   1.000000e+001 4.650000e+001 1.500000e+001
    endloop
  endfacet
  facet normal -0.000000e+000 0.000000e+000 1.000000e+000
    outer loop
      vertex   1.000000e+001 4.650000e+001 1.500000e+001
      vertex   1.500000e+001 4.000000e+000 1.500000e+001
      vertex   1.500000e+001 4.650000e+001 1.500000e+001
    endloop
  endfacet
endsolid
